<svg id="Layer_1" data-name="Layer 1" xmlns="http://www.w3.org/2000/svg" viewBox="0 0 80.86 60"><defs><style>.cls-1{fill:#1a1a1a;}</style></defs><path class="cls-1" d="M23.16,25.08,5.93,39a1.5,1.5,0,0,0-.55,1.15V56.23a1.48,1.48,0,0,0,1.48,1.48H24.09a1.48,1.48,0,0,0,1.48-1.48v-30a1.48,1.48,0,0,0-2.41-1.15Zm-.55,29.67H8.34V40.83L22.61,29.32Z"/><path class="cls-1" d="M35.53,16.08l-4.45,2.78a1.49,1.49,0,0,0-.69,1.26V56.23a1.48,1.48,0,0,0,1.48,1.48H49.09a1.48,1.48,0,0,0,1.48-1.48V30.67a1.48,1.48,0,0,0-.41-1L37.38,16.31A1.49,1.49,0,0,0,35.53,16.08ZM47.61,54.75H33.35V20.94l2.73-1.71,11.53,12Z"/><path class="cls-1" d="M67.12,19.34,55.82,30.63a1.07,1.07,0,0,0-.3.74v25.3a1,1,0,0,0,1,1H67.85a1,1,0,0,0,1-1V20.07a1,1,0,0,0-1.77-.73Zm-.31,36.3H57.59V31.79l9.22-9.21Z"/><path class="cls-1" d="M76.82,3Q64.61,12,52.39,21L38.18,6.12a1.77,1.77,0,0,0-2.11-.28L4.51,27.8c-1.83,1.27-.09,4.29,1.75,3L36.71,9.62,51,24.53a1.74,1.74,0,0,0,2.1.28L78.58,6C80.37,4.73,78.63,1.71,76.82,3Z"/></svg>